<?xml version="1.0" standalone="no"?>
<!DOCTYPE svg PUBLIC "-//W3C//DTD SVG 20010904//EN"
 "http://www.w3.org/TR/2001/REC-SVG-20010904/DTD/svg10.dtd">
<svg version="1.0" xmlns="http://www.w3.org/2000/svg"
 width="700.000000pt" height="700.000000pt" viewBox="0 0 700.000000 700.000000"
 preserveAspectRatio="xMidYMid meet">
<metadata>
Created by potrace 1.14, written by Peter Selinger 2001-2017
</metadata>
<g transform="translate(0.000000,700.000000) scale(0.100000,-0.100000)"
fill="#000000" stroke="none">
<path d="M955 5743 c-307 -39 -597 -219 -770 -478 -123 -185 -176 -352 -181
-575 -4 -199 27 -333 116 -506 327 -637 1199 -770 1717 -263 34 33 58 49 68
46 8 -4 84 -45 167 -93 84 -48 173 -98 198 -112 55 -30 299 -170 394 -224 l68
-40 -93 -52 c-52 -29 -114 -64 -139 -78 -196 -113 -602 -338 -608 -338 -4 0
-26 19 -48 43 -132 140 -371 263 -588 302 -150 27 -359 13 -511 -34 -351 -109
-635 -410 -716 -761 -6 -25 -13 -54 -16 -65 -3 -11 -7 -87 -8 -170 -2 -135 0
-161 24 -255 36 -139 79 -239 151 -347 148 -224 385 -394 637 -458 106 -26
117 -28 258 -31 111 -3 160 0 236 16 411 84 721 377 826 778 21 79 25 122 27
237 1 173 -14 268 -64 395 l-19 49 92 52 c51 29 108 61 127 72 19 11 85 48
145 82 61 34 157 88 215 122 58 33 182 103 277 157 l172 97 153 -46 c632 -191
1299 -392 1378 -415 52 -16 313 -94 580 -175 403 -122 1113 -336 1380 -417
230 -69 262 -71 326 -23 90 69 93 212 5 274 -27 19 -90 46 -131 56 -16 4 -262
78 -765 230 -176 54 -340 103 -365 110 -25 7 -144 43 -265 79 -121 36 -251 76
-290 87 -38 12 -81 25 -95 30 -14 4 -281 85 -595 180 -313 94 -603 181 -644
193 -41 13 -69 26 -63 30 11 6 58 21 392 121 80 23 174 52 210 63 54 17 716
217 940 284 36 10 85 25 110 32 251 75 1315 396 1415 428 113 35 135 46 168
80 20 21 38 49 38 61 1 12 3 33 4 46 4 35 -12 85 -36 115 -27 34 -90 66 -130
66 -18 0 -139 -32 -268 -71 -130 -39 -256 -77 -281 -84 -42 -12 -249 -74 -810
-245 -129 -39 -242 -73 -250 -75 -8 -2 -69 -20 -135 -40 -66 -20 -140 -43
-165 -50 -53 -16 -344 -104 -445 -135 -38 -11 -101 -30 -140 -42 -38 -11 -104
-31 -146 -44 -42 -14 -85 -27 -95 -29 -26 -6 -83 -23 -566 -170 l-418 -126
-242 137 c-207 117 -464 263 -573 324 -16 9 -71 40 -122 69 l-91 51 24 66 c38
106 57 211 60 339 12 521 -359 969 -880 1061 -74 13 -256 17 -331 7z m263
-348 c62 -9 176 -50 237 -85 214 -123 350 -347 359 -593 16 -447 -380 -807
-829 -754 -33 4 -64 8 -70 8 -30 3 -159 57 -215 90 -288 169 -418 525 -307
844 55 161 178 310 328 398 72 42 199 86 274 94 27 3 51 6 53 7 4 5 123 -2
170 -9z m-8 -2366 c298 -54 537 -292 593 -589 44 -237 -31 -473 -206 -643
-324 -315 -864 -251 -1122 133 -80 120 -115 232 -119 383 -8 270 124 501 364
640 61 35 182 74 255 82 33 4 61 8 63 10 5 5 110 -5 172 -16z"/>
</g>
</svg>
